<svg width="254" height="62" viewBox="0 0 254 62" fill="none" xmlns="http://www.w3.org/2000/svg">
<rect width="254" height="62" rx="31" fill="black"/>
<path d="M44.256 36.14C43.6027 36.14 43.0287 36.0187 42.534 35.776C42.0487 35.524 41.6707 35.174 41.4 34.726C41.1387 34.2687 41.008 33.732 41.008 33.116V28.664C41.008 28.0387 41.1387 27.502 41.4 27.054C41.6707 26.606 42.0487 26.2607 42.534 26.018C43.0287 25.766 43.6027 25.64 44.256 25.64C44.9187 25.64 45.488 25.766 45.964 26.018C46.4493 26.2607 46.8273 26.606 47.098 27.054C47.3687 27.502 47.504 28.0387 47.504 28.664H45.74C45.74 28.1787 45.6093 27.81 45.348 27.558C45.096 27.306 44.732 27.18 44.256 27.18C43.78 27.18 43.4113 27.306 43.15 27.558C42.8887 27.81 42.758 28.174 42.758 28.65V33.116C42.758 33.592 42.8887 33.9607 43.15 34.222C43.4113 34.474 43.78 34.6 44.256 34.6C44.732 34.6 45.096 34.474 45.348 34.222C45.6093 33.9607 45.74 33.592 45.74 33.116H47.504C47.504 33.7227 47.3687 34.2547 47.098 34.712C46.8273 35.1693 46.4493 35.524 45.964 35.776C45.488 36.0187 44.9187 36.14 44.256 36.14ZM55.3945 36.14C54.7412 36.14 54.1719 36.0187 53.6865 35.776C53.2105 35.524 52.8419 35.174 52.5805 34.726C52.3285 34.2687 52.2025 33.732 52.2025 33.116V28.664C52.2025 28.048 52.3285 27.516 52.5805 27.068C52.8419 26.6107 53.2105 26.2607 53.6865 26.018C54.1719 25.766 54.7412 25.64 55.3945 25.64C56.0572 25.64 56.6265 25.766 57.1025 26.018C57.5785 26.2607 57.9425 26.6107 58.1945 27.068C58.4559 27.516 58.5865 28.0433 58.5865 28.65V33.116C58.5865 33.732 58.4559 34.2687 58.1945 34.726C57.9425 35.174 57.5785 35.524 57.1025 35.776C56.6265 36.0187 56.0572 36.14 55.3945 36.14ZM55.3945 34.6C55.8705 34.6 56.2299 34.474 56.4725 34.222C56.7152 33.9607 56.8365 33.592 56.8365 33.116V28.664C56.8365 28.1787 56.7152 27.81 56.4725 27.558C56.2299 27.306 55.8705 27.18 55.3945 27.18C54.9185 27.18 54.5592 27.306 54.3165 27.558C54.0739 27.81 53.9525 28.1787 53.9525 28.664V33.116C53.9525 33.592 54.0739 33.9607 54.3165 34.222C54.5685 34.474 54.9279 34.6 55.3945 34.6ZM63.3971 36V25.78H65.5391L68.3811 34.04C68.3531 33.7413 68.3204 33.3913 68.2831 32.99C68.2551 32.5793 68.2317 32.164 68.2131 31.744C68.1944 31.3147 68.1851 30.9413 68.1851 30.624V25.78H69.7811V36H67.6391L64.8251 27.74C64.8437 28.0107 64.8671 28.3373 64.8951 28.72C64.9231 29.1027 64.9464 29.4947 64.9651 29.896C64.9837 30.2973 64.9931 30.666 64.9931 31.002V36H63.3971ZM76.9016 36V27.404H74.2276V25.78H81.3396V27.404H78.6656V36H76.9016ZM85.2681 36L87.8441 25.78H90.0981L92.6881 36H90.8961L90.3361 33.522H87.6201L87.0601 36H85.2681ZM87.9421 32.094H90.0141L89.3981 29.35C89.2955 28.8927 89.2068 28.482 89.1321 28.118C89.0575 27.7447 89.0061 27.474 88.9781 27.306C88.9501 27.474 88.8988 27.7447 88.8241 28.118C88.7588 28.482 88.6701 28.888 88.5581 29.336L87.9421 32.094ZM100.229 36.14C99.5753 36.14 99.0013 36.0187 98.5067 35.776C98.0213 35.524 97.6433 35.174 97.3727 34.726C97.1113 34.2687 96.9807 33.732 96.9807 33.116V28.664C96.9807 28.0387 97.1113 27.502 97.3727 27.054C97.6433 26.606 98.0213 26.2607 98.5067 26.018C99.0013 25.766 99.5753 25.64 100.229 25.64C100.891 25.64 101.461 25.766 101.937 26.018C102.422 26.2607 102.8 26.606 103.071 27.054C103.341 27.502 103.477 28.0387 103.477 28.664H101.713C101.713 28.1787 101.582 27.81 101.321 27.558C101.069 27.306 100.705 27.18 100.229 27.18C99.7527 27.18 99.384 27.306 99.1227 27.558C98.8613 27.81 98.7307 28.174 98.7307 28.65V33.116C98.7307 33.592 98.8613 33.9607 99.1227 34.222C99.384 34.474 99.7527 34.6 100.229 34.6C100.705 34.6 101.069 34.474 101.321 34.222C101.582 33.9607 101.713 33.592 101.713 33.116H103.477C103.477 33.7227 103.341 34.2547 103.071 34.712C102.8 35.1693 102.422 35.524 101.937 35.776C101.461 36.0187 100.891 36.14 100.229 36.14ZM110.485 36V27.404H107.811V25.78H114.923V27.404H112.249V36H110.485ZM133.756 36.14C132.758 36.14 131.974 35.8693 131.404 35.328C130.844 34.7773 130.564 34.0307 130.564 33.088V25.78H132.328V33.074C132.328 33.5593 132.45 33.9373 132.692 34.208C132.935 34.4787 133.29 34.614 133.756 34.614C134.214 34.614 134.564 34.4787 134.806 34.208C135.058 33.9373 135.184 33.5593 135.184 33.074V25.78H136.948V33.088C136.948 34.0307 136.668 34.7773 136.108 35.328C135.548 35.8693 134.764 36.14 133.756 36.14ZM144.979 36.14C144.279 36.14 143.672 36.0233 143.159 35.79C142.645 35.5567 142.249 35.2253 141.969 34.796C141.698 34.3573 141.558 33.844 141.549 33.256H143.299C143.299 33.676 143.448 34.0073 143.747 34.25C144.055 34.4833 144.47 34.6 144.993 34.6C145.497 34.6 145.889 34.4833 146.169 34.25C146.458 34.0167 146.603 33.6947 146.603 33.284C146.603 32.9387 146.5 32.64 146.295 32.388C146.099 32.1267 145.814 31.9493 145.441 31.856L144.265 31.534C143.462 31.3287 142.841 30.96 142.403 30.428C141.973 29.896 141.759 29.252 141.759 28.496C141.759 27.9173 141.889 27.4133 142.151 26.984C142.412 26.5547 142.781 26.2233 143.257 25.99C143.742 25.7567 144.311 25.64 144.965 25.64C145.954 25.64 146.738 25.8967 147.317 26.41C147.895 26.914 148.189 27.5953 148.199 28.454H146.449C146.449 28.0527 146.318 27.74 146.057 27.516C145.795 27.2827 145.427 27.166 144.951 27.166C144.493 27.166 144.139 27.2733 143.887 27.488C143.635 27.7027 143.509 28.006 143.509 28.398C143.509 28.7527 143.602 29.056 143.789 29.308C143.985 29.5507 144.265 29.7233 144.629 29.826L145.847 30.162C146.659 30.3673 147.279 30.736 147.709 31.268C148.138 31.7907 148.353 32.4393 148.353 33.214C148.353 33.7927 148.213 34.306 147.933 34.754C147.653 35.1927 147.261 35.5333 146.757 35.776C146.253 36.0187 145.66 36.14 144.979 36.14Z" fill="white"/>
<path d="M214.354 31.3536C214.549 31.1583 214.549 30.8417 214.354 30.6464L211.172 27.4645C210.976 27.2692 210.66 27.2692 210.464 27.4645C210.269 27.6597 210.269 27.9763 210.464 28.1716L213.293 31L210.464 33.8284C210.269 34.0237 210.269 34.3403 210.464 34.5355C210.66 34.7308 210.976 34.7308 211.172 34.5355L214.354 31.3536ZM185 31.5L214 31.5L214 30.5L185 30.5L185 31.5Z" fill="#8BC0F1"/>
</svg>
